mastitorrents.com
 
http://mastitorrents.com/forums/index.php

General 
Complete name                    : Mallika I Love You (2010)1CD HDRip XviD MP3
Format                           : AVI
 Format/Info                      : Audio Video Interleave File size                              : 838 MiB
 Duration                         : 2h 12mn
 Overall bit rate                 : 881 Kbps
 Writing application              : Lavf51.12.1
 Video
 ID                               : 0
 Format                           : MPEG-4 Visual
 Format profile                   : Simple@L1
 Format settings, BVOP            : No
 Format settings, QPel            : No
 Format settings, GMC             : No warppoints
 Format settings, Matrix          : Default (H.263)
 Codec ID                         : DX50
 Codec ID/Hint                    : DivX 5
 Duration                         : 2h 12mn
 Bit rate                         : 741 Kbps
 Width                            : 624 pixels
 Height                           : 288 pixels
 Display aspect ratio             : 2.2:1
 Frame rate                       : 23.976 fps
 Color space                      : YUV
 Chroma subsampling               : 4:2:0
 Bit depth                        : 8 bits
 Scan type                        : Progressive
 Compression mode                 : Lossy
 Bits/(Pixel*Frame)               : 0.172
 Stream size                      : 705 MiB (84%)
 Writing library                  : Lavc51.40.4
 Audio
 ID                               : 1
 Format                           : MPEG Audio
 Format version                   : Version 1
 Format profile                   : Layer 3
 Mode                             : Joint stereo
 Mode extension                   : MS Stereo
 Codec ID                         : 55
 Codec ID/Hint                    : MP3
 Duration                         : 2h 12mn
 Bit rate mode                    : Constant
 Bit rate                         : 128 Kbps
 Channel(s)                       : 2 channels
 Sampling rate                    : 44.1 KHz
 Compression mode                 : Lossy
 Stream size                      : 122 MiB (15%)
 Alignment                        : Aligned on interleaves
 Interleave, duration             : 26 ms (0.63 video frame)
 Interleave, preload duration     : 26 ms
 Writing library                  : LAME3.97